<mxfile host="Electron" modified="2024-03-17T16:17:55.794Z" agent="Mozilla/5.0 (Windows NT 10.0; Win64; x64) AppleWebKit/537.36 (KHTML, like Gecko) draw.io/24.0.4 Chrome/120.0.6099.109 Electron/28.1.0 Safari/537.36" etag="bfFlwxK8hig81T-Av0Bx" version="24.0.4" type="device">
  <diagram name="Seite-1" id="D4TpYz6-w0tNHncNLvST">
    <mxGraphModel dx="989" dy="582" grid="1" gridSize="10" guides="1" tooltips="1" connect="1" arrows="1" fold="1" page="1" pageScale="1" pageWidth="827" pageHeight="1169" math="0" shadow="0">
      <root>
        <mxCell id="0" />
        <mxCell id="1" parent="0" />
        <mxCell id="fsYiSwlMvPNJxTF11SXu-5" style="edgeStyle=orthogonalEdgeStyle;rounded=0;orthogonalLoop=1;jettySize=auto;html=1;exitX=0;exitY=0.5;exitDx=0;exitDy=0;entryX=0.5;entryY=0;entryDx=0;entryDy=0;" edge="1" parent="1" source="fsYiSwlMvPNJxTF11SXu-1" target="fsYiSwlMvPNJxTF11SXu-2">
          <mxGeometry relative="1" as="geometry" />
        </mxCell>
        <mxCell id="fsYiSwlMvPNJxTF11SXu-9" style="edgeStyle=orthogonalEdgeStyle;rounded=0;orthogonalLoop=1;jettySize=auto;html=1;exitX=1;exitY=0.5;exitDx=0;exitDy=0;entryX=0.5;entryY=0;entryDx=0;entryDy=0;" edge="1" parent="1" source="fsYiSwlMvPNJxTF11SXu-1" target="fsYiSwlMvPNJxTF11SXu-6">
          <mxGeometry relative="1" as="geometry" />
        </mxCell>
        <mxCell id="fsYiSwlMvPNJxTF11SXu-1" value="Schalter EIN" style="rounded=1;whiteSpace=wrap;html=1;" vertex="1" parent="1">
          <mxGeometry x="280" y="120" width="120" height="40" as="geometry" />
        </mxCell>
        <mxCell id="fsYiSwlMvPNJxTF11SXu-2" value="USB-C angeschlossen" style="rounded=1;whiteSpace=wrap;html=1;" vertex="1" parent="1">
          <mxGeometry x="160" y="200" width="120" height="40" as="geometry" />
        </mxCell>
        <mxCell id="fsYiSwlMvPNJxTF11SXu-6" value="Aus" style="rounded=1;whiteSpace=wrap;html=1;" vertex="1" parent="1">
          <mxGeometry x="400" y="200" width="120" height="40" as="geometry" />
        </mxCell>
        <mxCell id="fsYiSwlMvPNJxTF11SXu-7" value="NEIN" style="text;html=1;align=center;verticalAlign=middle;whiteSpace=wrap;rounded=0;" vertex="1" parent="1">
          <mxGeometry x="220" y="110" width="60" height="30" as="geometry" />
        </mxCell>
        <mxCell id="fsYiSwlMvPNJxTF11SXu-8" value="JA" style="text;html=1;align=center;verticalAlign=middle;whiteSpace=wrap;rounded=0;" vertex="1" parent="1">
          <mxGeometry x="400" y="110" width="60" height="30" as="geometry" />
        </mxCell>
      </root>
    </mxGraphModel>
  </diagram>
</mxfile>
